Coordinates
version=1
nRows=13
nColumns=40
inDegrees=yes

Units are S.I. units (second, meters, Newtons, ...)
If the header above contains a line with 'inDegrees', this indicates whether rotational values are in degrees (yes) or radians (no).

endheader
time	pelvis_tilt	pelvis_list	pelvis_rotation	pelvis_tx	pelvis_ty	pelvis_tz	hip_flexion_r	hip_adduction_r	hip_rotation_r	knee_angle_r	knee_angle_r_beta	ankle_angle_r	subtalar_angle_r	mtp_angle_r	hip_flexion_l	hip_adduction_l	hip_rotation_l	knee_angle_l	knee_angle_l_beta	ankle_angle_l	subtalar_angle_l	mtp_angle_l	lumbar_extension	lumbar_bending	lumbar_rotation	arm_flex_r	arm_add_r	arm_rot_r	elbow_flex_r	pro_sup_r	wrist_flex_r	wrist_dev_r	arm_flex_l	arm_add_l	arm_rot_l	elbow_flex_l	pro_sup_l	wrist_flex_l	wrist_dev_l
      2.70000000	    -21.53350753	      2.66298307	      1.82986807	     -0.40410832	      0.75495524	     -0.79658745	     68.58555524	     -0.99562358	     -8.18261143	     78.78683713	      1.37508972	     22.23006464	      0.00000000	      0.00000000	     45.97413472	    -12.31313212	      3.89893948	     99.53498734	      1.73721325	    -33.43145625	      0.00000000	      0.00000000	    -10.66054630	    -21.11266193	    -17.73134874	     76.62289616	    -16.10513954	     13.65735110	     60.39080635	     87.45482243	      0.00000000	      0.00000000	     89.96041747	     10.22689331	     29.09517778	     43.59516219	     52.28595669	      0.00000000	      0.00000000
      2.70500000	    -21.57263054	      2.60481037	      1.83979247	     -0.40431547	      0.75442313	     -0.79641613	     68.68549514	     -0.96729915	     -8.23634091	     78.87699672	      1.37666330	     22.21472339	      0.00000000	      0.00000000	     46.01157765	    -12.37727710	      3.92297714	     99.59333937	      1.73823168	    -33.38390381	      0.00000000	      0.00000000	    -10.67126047	    -21.07229780	    -17.70271688	     76.69851482	    -16.12054497	     13.64700417	     60.34662155	     87.49259005	      0.00000000	      0.00000000	     89.96049398	     10.25535197	     29.02965429	     43.65781894	     51.42630957	      0.00000000	      0.00000000
      2.71000000	    -21.59147964	      2.57886242	      1.84154176	     -0.40445428	      0.75393268	     -0.79631236	     68.75517622	     -0.97412016	     -8.28782404	     78.94839455	      1.37790942	     22.26180659	      0.00000000	      0.00000000	     46.02968892	    -12.41191430	      3.89993762	     99.67240662	      1.73961167	    -33.32790962	      0.00000000	      0.00000000	    -10.64972456	    -21.02807588	    -17.52994103	     76.72087609	    -16.24268533	     13.67805081	     60.36719875	     87.49548013	      0.00000000	      0.00000000	     89.96052991	     10.34330055	     28.98822739	     43.60979991	     51.54978369	      0.00000000	      0.00000000
      2.71500000	    -21.56506846	      2.47406476	      1.88195564	     -0.40455777	      0.75366508	     -0.79604496	     68.74793494	     -0.95508851	     -8.44130645	     78.99433025	      1.37871115	     22.28360141	      0.00000000	      0.00000000	     45.99203840	    -12.49701789	      3.97580494	     99.60477793	      1.73843133	    -33.43947621	      0.00000000	      0.00000000	    -10.82555143	    -20.98330220	    -17.71573390	     76.80346681	    -16.11970262	     13.59541920	     60.32574754	     87.44749647	      0.00000000	      0.00000000	     89.96071697	     10.33346553	     28.82893395	     43.79657958	     51.01112467	      0.00000000	      0.00000000
      2.72000000	    -21.56055290	      2.47087167	      1.89838137	     -0.40468445	      0.75322841	     -0.79594830	     68.79630825	     -0.96497964	     -8.43748674	     79.07201080	      1.38006693	     22.24149035	      0.00000000	      0.00000000	     45.97429770	    -12.48018757	      3.96269667	     99.63755941	      1.73900347	    -33.38190839	      0.00000000	      0.00000000	    -10.89242450	    -20.98762931	    -17.71077804	     76.86196219	    -16.11770132	     13.56405537	     60.27914979	     87.43804795	      0.00000000	      0.00000000	     89.96080219	     10.35813768	     28.70798934	     43.86605677	     50.86737985	      0.00000000	      0.00000000
      2.72500000	    -21.63573886	      2.43027200	      1.86024493	     -0.40487985	      0.75255282	     -0.79575033	     68.95150199	     -0.93230109	     -8.51109023	     79.18545925	      1.38204698	     22.26035530	      0.00000000	      0.00000000	     46.06461385	    -12.57844793	      3.91776190	     99.68463808	      1.73982515	    -33.47180225	      0.00000000	      0.00000000	    -10.77741158	    -20.93655986	    -17.49425339	     76.88920013	    -16.21422536	     13.56184829	     60.28573960	     87.45486513	      0.00000000	      0.00000000	     89.96082971	     10.39881536	     28.79408987	     43.84828762	     50.99112688	      0.00000000	      0.00000000
      2.73000000	    -21.67883221	      2.41839037	      1.83376358	     -0.40507662	      0.75205722	     -0.79553649	     69.04911924	     -0.89943529	     -8.52263946	     79.24741876	      1.38312838	     22.31294222	      0.00000000	      0.00000000	     46.08650719	    -12.62984304	      3.87580600	     99.71074427	      1.74028079	    -33.42457751	      0.00000000	      0.00000000	    -10.82375465	    -20.98439063	    -17.56030241	     76.93981022	    -16.17164006	     13.55365785	     60.30510365	     87.46631226	      0.00000000	      0.00000000	     89.96100205	     10.40537829	     28.65608289	     43.98849521	     49.99781183	      0.00000000	      0.00000000
      2.73500000	    -21.71375722	      2.35876887	      1.82841900	     -0.40520295	      0.75155540	     -0.79530437	     69.14015115	     -0.88330217	     -8.62483689	     79.33033907	      1.38457561	     22.30127879	      0.00000000	      0.00000000	     46.13773116	    -12.71723019	      3.88823747	     99.74371714	      1.74085627	    -33.47862079	      0.00000000	      0.00000000	    -10.81941760	    -20.94888022	    -17.52385617	     77.01673965	    -16.13925989	     13.56336847	     60.20828555	     87.47697080	      0.00000000	      0.00000000	     89.96113223	     10.41298896	     28.59627991	     44.03891663	     50.11624037	      0.00000000	      0.00000000
      2.74000000	    -21.74252092	      2.32778021	      1.81785659	     -0.40531148	      0.75105035	     -0.79514797	     69.22104396	     -0.87907404	     -8.68730309	     79.41445119	      1.38604365	     22.33344418	      0.00000000	      0.00000000	     46.15276901	    -12.78038897	      3.86766767	     99.77784006	      1.74145183	    -33.43877482	      0.00000000	      0.00000000	    -10.77719023	    -20.92994115	    -17.33895767	     76.99005386	    -16.28808930	     13.51691914	     60.26497223	     87.45603149	      0.00000000	      0.00000000	     89.96109874	     10.52048800	     28.60929616	     43.97321366	     50.32437301	      0.00000000	      0.00000000
      2.74500000	    -21.79750522	      2.30050384	      1.81480309	     -0.40556493	      0.75058282	     -0.79492824	     69.33382755	     -0.87127057	     -8.74035983	     79.47312308	      1.38706766	     22.28809659	      0.00000000	      0.00000000	     46.22513121	    -12.82308376	      3.86943250	     99.79177616	      1.74169506	    -33.52018117	      0.00000000	      0.00000000	    -10.81947908	    -20.94649350	    -17.43831958	     77.04212011	    -16.19080862	     13.44685189	     60.29491936	     87.42582674	      0.00000000	      0.00000000	     89.96136544	     10.46471865	     28.55266059	     44.16256719	     49.49852402	      0.00000000	      0.00000000
      2.75000000	    -21.74802312	      2.27542351	      1.78856012	     -0.40560832	      0.75014060	     -0.79474471	     69.32633977	     -0.86424178	     -8.80341143	     79.55893060	      1.38856529	     22.42223029	      0.00000000	      0.00000000	     46.14262749	    -12.87309324	      3.84546076	     99.84100567	      1.74255428	    -33.32794462	      0.00000000	      0.00000000	    -10.88664157	    -20.92027504	    -17.36744554	     77.11465478	    -16.22252411	     13.56093696	     60.26160890	     87.51020599	      0.00000000	      0.00000000	     89.96143345	     10.47897978	     28.42180475	     44.16525132	     49.95812264	      0.00000000	      0.00000000
      2.75500000	    -21.85248231	      2.25657518	      1.76738018	     -0.40580227	      0.74950764	     -0.79454046	     69.50466187	     -0.84498169	     -8.84685974	     79.66263438	      1.39037526	     22.45681185	      0.00000000	      0.00000000	     46.25144886	    -12.94434300	      3.82227066	     99.89312658	      1.74346396	    -33.48673886	      0.00000000	      0.00000000	    -10.76220430	    -20.90224155	    -17.18331580	     77.12836203	    -16.33431109	     13.55955449	     60.28134651	     87.49624620	      0.00000000	      0.00000000	     89.96145863	     10.55345400	     28.39580437	     44.16132490	     49.46848653	      0.00000000	      0.00000000
      2.76000000	    -21.82658645	      2.22061919	      1.74397940	     -0.40585393	      0.74913874	     -0.79436070	     69.51301280	     -0.82948514	     -8.90433567	     79.72362782	      1.39143980	     22.43859091	      0.00000000	      0.00000000	     46.20098443	    -13.01081897	      3.81657960	     99.90594695	      1.74368772	    -33.46519861	      0.00000000	      0.00000000	    -10.85708575	    -20.86491524	    -17.23012108	     77.21780475	    -16.23907855	     13.53748511	     60.24949145	     87.50216366	      0.00000000	      0.00000000	     89.96162866	     10.48399684	     28.23943479	     44.33583490	     49.64790756	      0.00000000	      0.00000000
